<svg xmlns="http://www.w3.org/2000/svg" width="197.4" height="67.938" viewBox="0 0 197.4 67.938"><g transform="translate(-107 -230)"><g transform="translate(-36.611 -74.277)"><path d="M168.139,344.77l-.487,17.857-15.4,9.587,8.942-7.69,6.948-19.753Z" fill="#fbd3cd" fill-rule="evenodd"/><path d="M166.976,316.84l-6.1-12.563,25.347,7.563-11.732,7.96-7.51-2.96Z" fill="#fbd3cd" fill-rule="evenodd"/><path d="M152.249,372.214,168.148,345l-7.169,20.683-8.73,6.53Z" fill="#f4aea4" fill-rule="evenodd"/><path d="M167.732,358.556l30.386-16.444-25.93-6.443-4.456,9.594Z" fill="#f4aea4" fill-rule="evenodd"/><path d="M171.746,337.254l.683-22.74-28.818-4.028,28.135,26.768Z" fill="#f4aea4" fill-rule="evenodd"/><path d="M198.322,342.147,174.2,319.435l11.975-7.675c.855.979,10.683,26.576,12,30.008l.146.38Z" fill="#fbd3cd" fill-rule="evenodd"/><path d="M198.213,342.185,172.375,314.47l-.838,22.6Z" fill="#c28c84" fill-rule="evenodd"/><path d="M205.3,329.165l4.025,12.532-8.7-4.28Z" fill="#fbd3cd" fill-rule="evenodd"/><path d="M198.186,342.182l7.237-13.015L194.2,331.558" fill="#f4aea4" fill-rule="evenodd"/></g><path d="M-123.8-3.2A8.1,8.1,0,0,1-130.96.32a9.065,9.065,0,0,1-7.04-3A10.6,10.6,0,0,1-140.64-10,10.6,10.6,0,0,1-138-17.32a9.3,9.3,0,0,1,7.24-3,7.936,7.936,0,0,1,6.96,3.56V-20h3V0h-3Zm-6.76.8a6.332,6.332,0,0,0,5.12-2.24,7.993,7.993,0,0,0,1.8-5.36,7.993,7.993,0,0,0-1.8-5.36,6.332,6.332,0,0,0-5.12-2.24,6.645,6.645,0,0,0-5.2,2.24A7.779,7.779,0,0,0-137.64-10a7.779,7.779,0,0,0,1.88,5.36A6.645,6.645,0,0,0-130.56-2.4ZM-112.6-20v3.12a10.038,10.038,0,0,1,2.64-2.44,6.453,6.453,0,0,1,3.56-1,9.489,9.489,0,0,1,3.44.56,6.973,6.973,0,0,1,2.52,1.68,8.629,8.629,0,0,1,2.48,6.44V0h-3V-11.56a6.12,6.12,0,0,0-1.56-4.4,5.325,5.325,0,0,0-4.04-1.64,5.97,5.97,0,0,0-4.28,1.68,5.886,5.886,0,0,0-1.76,4.4V0h-3V-20ZM-90.8,0V-17.36h-4.08V-20h4.08v-7.16h3V-20h4.6v2.64h-4.6V0Zm13.88-28v11.12a10.038,10.038,0,0,1,2.64-2.44,6.453,6.453,0,0,1,3.56-1,9.489,9.489,0,0,1,3.44.56,6.973,6.973,0,0,1,2.52,1.68,8.629,8.629,0,0,1,2.48,6.44V0h-3V-11.56a6.12,6.12,0,0,0-1.56-4.4,5.325,5.325,0,0,0-4.04-1.64,5.97,5.97,0,0,0-4.28,1.68,5.886,5.886,0,0,0-1.76,4.4V0h-3V-28ZM-48.36-2.4a6.051,6.051,0,0,0,5.8-3.36h3.28a9.652,9.652,0,0,1-3.3,4.4A9.5,9.5,0,0,1-48.4.32a9.677,9.677,0,0,1-7.36-3A10.238,10.238,0,0,1-58.52-10a10.414,10.414,0,0,1,2.64-7.32,9.5,9.5,0,0,1,7.28-3,9.5,9.5,0,0,1,7.28,3A10.414,10.414,0,0,1-38.68-10v1.2H-55.44a7.259,7.259,0,0,0,2.2,4.56A6.767,6.767,0,0,0-48.36-2.4Zm-.24-15.2a6.618,6.618,0,0,0-4.64,1.72A7.106,7.106,0,0,0-55.4-11.6h13.6a7.106,7.106,0,0,0-2.16-4.28A6.618,6.618,0,0,0-48.6-17.6Zm24.16-2.72v3h-.36a6.408,6.408,0,0,0-5.28,2.6A9.384,9.384,0,0,0-32-8.8V0h-3V-20h3v4.92a7.307,7.307,0,0,1,4.16-4.6,7.284,7.284,0,0,1,3.2-.64ZM-5.6-3.2A8.1,8.1,0,0,1-12.76.32a9.065,9.065,0,0,1-7.04-3A10.6,10.6,0,0,1-22.44-10a10.6,10.6,0,0,1,2.64-7.32,9.3,9.3,0,0,1,7.24-3A7.936,7.936,0,0,1-5.6-16.76V-20h3V0h-3Zm-6.76.8A6.332,6.332,0,0,0-7.24-4.64,7.993,7.993,0,0,0-5.44-10a7.993,7.993,0,0,0-1.8-5.36,6.332,6.332,0,0,0-5.12-2.24,6.645,6.645,0,0,0-5.2,2.24A7.78,7.78,0,0,0-19.44-10a7.78,7.78,0,0,0,1.88,5.36A6.645,6.645,0,0,0-12.36-2.4Z" transform="translate(307 297)" fill="#f4aea4"/></g></svg>