<svg xmlns="http://www.w3.org/2000/svg" xmlns:xlink="http://www.w3.org/1999/xlink" width="354" height="694.348" viewBox="0 0 354 694.348"><defs><linearGradient id="a" x1="1" y1="0.01" x2="-0.02" y2="0.993" gradientUnits="objectBoundingBox"><stop offset="0" stop-color="#656565" stop-opacity="0.051"/><stop offset="1" stop-color="#aeaeae" stop-opacity="0.4"/></linearGradient></defs><g fill="url(#a)"><path d="M 331 693.8483276367188 L 23 693.8483276367188 C 19.97200012207031 693.8483276367188 17.03390884399414 693.16064453125 14.26745414733887 691.8042602539063 C 11.58954524993896 690.4912719726563 9.183091163635254 688.6100463867188 7.115090847015381 686.212890625 C 5.042545318603516 683.8103637695313 3.414818286895752 681.0113525390625 2.27718186378479 677.8936157226563 C 1.097909092903137 674.6616821289063 0.5 671.2279052734375 0.5 667.687255859375 L 0.5 26.66116333007813 C 0.5 23.12052726745605 1.097909092903137 19.68661880493164 2.27718186378479 16.45479965209961 C 3.414818286895752 13.33707332611084 5.042545318603516 10.53798198699951 7.115181922912598 8.13543701171875 C 9.183091163635254 5.738254547119141 11.58954524993896 3.857072830200195 14.26745414733887 2.544072866439819 C 17.03390884399414 1.187709331512451 19.97200012207031 0.4999819993972778 23 0.4999819993972778 L 331 0.4999819993972778 C 334.0280151367188 0.4999819993972778 336.9660949707031 1.187709331512451 339.7325439453125 2.544072866439819 C 342.4104614257813 3.857072830200195 344.81689453125 5.738254547119141 346.8848266601563 8.13543701171875 C 348.9574584960938 10.53798198699951 350.5851745605469 13.33707332611084 351.7228088378906 16.45479965209961 C 352.902099609375 19.68661880493164 353.5 23.12052726745605 353.5 26.66116333007813 L 353.5 667.687255859375 C 353.5 671.2279052734375 352.902099609375 674.6616821289063 351.7228088378906 677.8936157226563 C 350.5851745605469 681.0113525390625 348.9574584960938 683.8103637695313 346.8849182128906 686.212890625 C 344.81689453125 688.6100463867188 342.4104614257813 690.4912719726563 339.7325439453125 691.8042602539063 C 336.9660949707031 693.16064453125 334.0280151367188 693.8483276367188 331 693.8483276367188 Z" stroke="none"/><path d="M 23 1 C 20.04891967773438 1 17.18490600585938 1.6705322265625 14.48764038085938 2.99310302734375 C 11.87054443359375 4.27618408203125 9.5174560546875 6.11627197265625 7.49371337890625 8.46209716796875 C 5.460723876953125 10.818603515625 3.8636474609375 13.5654296875 2.746917724609375 16.62628173828125 C 1.587738037109375 19.802978515625 1 23.17913818359375 1 26.66119384765625 L 1 667.687255859375 C 1 671.169189453125 1.587738037109375 674.54541015625 2.746917724609375 677.72216796875 C 3.8636474609375 680.7828979492188 5.460723876953125 683.5297241210938 7.49371337890625 685.88623046875 C 9.5174560546875 688.232177734375 11.87054443359375 690.0721435546875 14.487548828125 691.3553466796875 C 17.18490600585938 692.6777954101563 20.04891967773438 693.3483276367188 23 693.3483276367188 L 331 693.3483276367188 C 333.9510803222656 693.3483276367188 336.8150939941406 692.6777954101563 339.512451171875 691.3553466796875 C 342.1294555664063 690.0721435546875 344.4825439453125 688.232177734375 346.5062866210938 685.88623046875 C 348.5392761230469 683.5297241210938 350.1363525390625 680.7828979492188 351.2530822753906 677.72216796875 C 352.4122619628906 674.54541015625 353 671.169189453125 353 667.687255859375 L 353 26.66119384765625 C 353 23.17913818359375 352.4122619628906 19.802978515625 351.2530822753906 16.62628173828125 C 350.1363525390625 13.5654296875 348.5392761230469 10.818603515625 346.5062866210938 8.46209716796875 C 344.4825439453125 6.11627197265625 342.1294555664063 4.27618408203125 339.5123596191406 2.99310302734375 C 336.8150939941406 1.6705322265625 333.9510803222656 1 331 1 L 23 1 M 23 0 L 331 0 C 343.7025451660156 0 354 11.9366455078125 354 26.66119384765625 L 354 667.687255859375 C 354 682.4118041992188 343.7025451660156 694.3483276367188 331 694.3483276367188 L 23 694.3483276367188 C 10.29745483398438 694.3483276367188 0 682.4118041992188 0 667.687255859375 L 0 26.66119384765625 C 0 11.9366455078125 10.29745483398438 0 23 0 Z" stroke="none" fill="#fff"/></g></svg>