<svg xmlns="http://www.w3.org/2000/svg" width="516.551" height="442.239" viewBox="0 0 516.551 442.239"><g transform="translate(210.561 191.167) rotate(-8)"><path d="M135.017,0,452.29,317.274H427.415L139.736,29.595,125.844,43.488,381.376,299.02H357.014L212.287,154.292,116.329,58.334,96.191,78.472,384.258,366.539H360.3L85.425,91.664,65,112.088,310.926,358.014h-27.6L51.02,125.706,33.453,143.273,270.976,380.8H249.066L0,131.73Z" transform="translate(-190.973 -154.096)" fill="#cfdff7"/><path d="M135.017,0,452.29,317.274H427.415L139.736,29.595,125.844,43.488,381.376,299.02H357.014L212.287,154.292,116.329,58.334,96.191,78.472,384.258,366.539H360.3L85.425,91.664,65,112.088,310.926,358.014h-27.6L51.02,125.706,33.453,143.273,270.976,380.8H249.066L0,131.73Z" transform="translate(-175.153 -154.096)" fill="#2170fc"/></g></svg>